<svg id="Layer_1" enable-background="new 0 0 512.005 512.005" height="512" viewBox="0 0 512.005 512.005" width="512" xmlns="http://www.w3.org/2000/svg" xmlns:xlink="http://www.w3.org/1999/xlink"><linearGradient id="SVGID_1_" gradientUnits="userSpaceOnUse" x1="155.216" x2="443.634" y1="243.553" y2="210.739"><stop offset="0" stop-color="#9ad880"/><stop offset="1" stop-color="#b2e59c"/></linearGradient><path d="m384.731 219.957 12.354-33.501c5.79-15.701 1.782-33.317-10.177-45.023-11.863-11.612-24.154-23.213-36.582-34.351-13.153-11.787-32.858-12.449-46.712-1.495l-24.5 19.371c-9.512 7.521-23.428.158-22.562-11.937l3.194-44.592c1.251-17.47-8.577-33.794-24.524-41.035-22.728-10.319-44.498-17.325-64.905-21.877-11.835-2.64-24.002 2.766-29.992 13.308l-17.235 30.333c-4.535 7.981-16.432 6.595-19.011-2.215l-9.244-31.585c-2.925-9.993-12.638-16.428-22.978-15.211-12.702 1.495-23.599 3.677-32.372 5.87-16.196 4.05-28.853 16.707-32.903 32.903-2.193 8.773-4.375 19.669-5.87 32.372-1.217 10.34 5.218 20.053 15.211 22.978l31.585 9.244c8.81 2.578 10.196 14.476 2.215 19.011l-30.333 17.234c-10.543 5.99-15.948 18.158-13.308 29.993 4.552 20.407 11.558 42.177 21.877 64.905 7.241 15.948 23.565 25.776 41.035 24.524l44.592-3.194c12.095-.866 19.458 13.05 11.937 22.562l-19.371 24.5c-10.954 13.854-10.291 33.56 1.495 46.712 11.138 12.428 22.739 24.719 34.351 36.582 11.706 11.959 29.322 15.967 45.023 10.177l33.501-12.354c15.788-5.822 31.127 9.573 25.246 25.34l-12.217 32.754c-5.402 14.483 2.475 30.467 17.202 35.16 19.706 6.28 41.332 5.885 61.335-1.848l118.31-45.739 45.739-118.31c7.733-20.003 8.128-41.628 1.848-61.335-4.694-14.728-20.677-22.605-35.16-17.202l-32.754 12.217c-15.767 5.881-31.162-9.457-25.34-25.246z" fill="url(#SVGID_1_)"/><path d="m154.144 250.761c-7.409-15.305-22.54-24.813-39.487-24.813-5.522 0-10-4.478-10-10 0-5.523 4.478-10 10-10 24.681 0 46.709 13.832 57.489 36.098 2.406 4.971.512 11.378-4.644 13.358-7.959 3.058-11.631-1.076-13.358-4.643z" fill="#e2fcd6"/><path d="m306.123 246.21c8.975-8.726 23.306-8.588 32.112.309l116.93 119.253-24.766 64.062-125.948-152.725c-7.582-9.161-7.303-22.173 1.672-30.899z" fill="#8dc971"/><path d="m504.791 505.356c-8.865 8.865-23.239 8.865-32.104 0l-325.36-325.36c-8.865-8.865-8.865-23.239 0-32.104 8.865-8.865 23.239-8.865 32.104 0l325.36 325.361c8.865 8.864 8.865 23.238 0 32.103z" fill="#7fb762"/><circle cx="77.869" cy="215.948" fill="#e2fcd6" r="10"/></svg>