<svg xmlns="http://www.w3.org/2000/svg" xmlns:se="http://svg-edit.googlecode.com" xmlns:xlink="http://www.w3.org/1999/xlink" xmlns:dc="http://purl.org/dc/elements/1.1/" xmlns:cc="http://creativecommons.org/ns#" xmlns:rdf="http://www.w3.org/1999/02/22-rdf-syntax-ns#" xmlns:inkscape="http://www.inkscape.org/namespaces/inkscape" width="621.2758619785309" height="732.7930989265442" style="">                                    <title>my vector image</title>                                    <!-- Created with Vector Paint - http://www.vectorpaint.yaks.com/ https://chrome.google.com/webstore/detail/hnbpdiengicdefcjecjbnjnoifekhgdo -->                                    <rect id="backgroundrect" width="100%" height="100%" x="0" y="0" fill="#FFFFFF" stroke="none"/>                                <g class="currentLayer" style=""><title>Layer 1</title><polyline fill="#abecab" stroke="#abecab" style="color: rgb(0, 0, 0);" stroke-width="2" stroke-linejoin="round" stroke-dashoffset="" fill-rule="nonzero" marker-start="" marker-mid="" marker-end="" id="svg_1" points="86.29605102539062,19.027575969696045 86.29605102539062,19.027575969696045 86.29605102539062,19.027575969696045 84.45578002929688,19.027575969696045 78.93527221679688,21.216952800750732 77.09512329101562,22.311648845672607 75.25491333007812,23.406344890594482 67.89413452148438,25.59572172164917 58.693206787109375,27.785098552703857 55.012847900390625,28.879794597625732 49.492340087890625,32.163859844207764 45.811981201171875,33.25855588912964 43.971710205078125,34.35324430465698 40.291290283203125,36.5426287651062 40.291290283203125,36.5426287651062 40.291290283203125,37.637317180633545 38.45113945007324,37.637317180633545 38.45113945007324,39.826701641082764 40.291290283203125,44.20546293258667 42.131500244140625,47.4895396232605 43.971710205078125,50.77361249923706 43.971710205078125,52.962993144989014 43.971710205078125,56.247066020965576 43.971710205078125,57.34174680709839 43.971710205078125,60.62582731246948 43.971710205078125,61.720515727996826 43.971710205078125,63.909892559051514 43.971710205078125,63.909892559051514 43.971710205078125,66.09927701950073 43.971710205078125,66.09927701950073 43.971710205078125,67.19397306442261 43.971710205078125,67.19397306442261 42.131500244140625,68.28866147994995 42.131500244140625,69.3833498954773 40.291290283203125,69.3833498954773 38.45113945007324,70.47804594039917 36.61092948913574,70.47804594039917 34.77084159851074,71.57273435592651 32.93063163757324,72.66742277145386 29.250333786010742,73.76211881637573 23.729734420776367,74.85680723190308 21.889524459838867,75.95148801803589 16.369016647338867,78.14088773727417 12.688566207885742,80.33025693893433 3.487730026245117,84.70901823043823 -2.032899856567383,86.89841794967651 -7.553407669067383,89.08778715133667 -13.074037551879883,91.27717161178589 -16.754365921020508,93.46654081344604 -20.434724807739258,94.56122922897339 -24.115175247192383,96.75062894821167 -27.7955322265625,98.93999814987183 -27.7955322265625,98.93999814987183 -27.7955322265625,101.12939023971558 -27.7955322265625,102.22407102584839 -29.635711669921875,103.31875944137573 -29.635711669921875,104.41344785690308 -29.635711669921875,108.79220914840698 -29.635711669921875,110.98160123825073 -29.635711669921875,114.26566648483276 -31.475860595703125,115.36035490036011 -31.475860595703125,117.54973936080933 -31.475860595703125,120.83381986618042 -31.475860595703125,124.11788511276245 -31.475860595703125,127.40195798873901 -31.475860595703125,128.49664640426636 -31.475860595703125,130.6860384941101 -29.635711669921875,131.78073453903198 -25.95538330078125,135.06479215621948 -24.115175247192383,137.25418424606323 -20.434724807739258,139.44356107711792 -16.754365921020508,141.6329379081726 -13.074037551879883,144.91701078414917 -5.713228225708008,149.2957797050476 1.6474285125732422,153.67453336715698 3.487730026245117,155.86391019821167 9.008237838745117,159.14798307418823 12.688566207885742,162.43207120895386 16.369016647338867,166.81080961227417 20.049345016479492,169.00021696090698 21.889524459838867,171.1895785331726 23.729734420776367,174.47366666793823 23.729734420776367,175.56833219528198 23.729734420776367,177.7577395439148 23.729734420776367,179.94713163375854 25.569852828979492,183.2312045097351 25.569852828979492,186.5152621269226 25.569852828979492,189.7993197441101 23.729734420776367,193.08340787887573 21.889524459838867,198.55685758590698 21.889524459838867,199.65155363082886 21.889524459838867,202.93564176559448 21.889524459838867,206.21969938278198 21.889524459838867,208.40909147262573 23.729734420776367,210.59845304489136 23.729734420776367,213.88255643844604 25.569852828979492,216.07191801071167 31.090513229370117,219.3560061454773 36.61092948913574,223.73472929000854 42.131500244140625,224.82945585250854 49.492340087890625,224.82945585250854 55.012847900390625,224.82945585250854 58.693206787109375,224.82945585250854 62.373626708984375,224.82945585250854 71.57443237304688,225.9241213798523 75.25491333007812,225.9241213798523 82.61557006835938,225.9241213798523 89.97640991210938,225.9241213798523 95.49691772460938,223.73472929000854 99.17739868164062,223.73472929000854 104.69790649414062,223.73472929000854 112.05856323242188,222.6400637626648 115.73904418945312,222.6400637626648 119.41940307617188,222.6400637626648 124.93984985351562,221.54536771774292 128.62033081054688,221.54536771774292 130.46047973632812,221.54536771774292 132.30062866210938,221.54536771774292 135.98104858398438,220.45067167282104 137.82119750976562,220.45067167282104 137.82119750976562,220.45067167282104 141.50161743164062,220.45067167282104 143.34182739257812,220.45067167282104 150.70248413085938,219.3560061454773 158.06332397460938,217.16661405563354 161.74362182617188,216.07191801071167 165.42410278320312,216.07191801071167 169.10446166992188,216.07191801071167 172.78475952148438,216.07191801071167 176.46511840820312,214.9772219657898 180.14553833007812,214.9772219657898 181.98568725585938,214.9772219657898 185.66610717773438,214.9772219657898 187.50625610351562,214.9772219657898 193.02688598632812,214.9772219657898 196.70724487304688,214.9772219657898 205.90817260742188,214.9772219657898 211.42868041992188,214.9772219657898 216.94912719726562,214.9772219657898 218.78952026367188,214.9772219657898 222.46981811523438,214.9772219657898 226.15017700195312,214.9772219657898 227.99032592773438,213.88255643844604 231.67074584960938,212.78786039352417 233.51095581054688,210.59845304489136 235.35116577148438,209.50375699996948 235.35116577148438,206.21969938278198 237.19131469726562,201.8409457206726 239.03146362304688,199.65155363082886 239.03146362304688,198.55685758590698 240.87161254882812,196.3674807548523 240.87161254882812,195.27278470993042 240.87161254882812,195.27278470993042 240.87161254882812,194.17811918258667 240.87161254882812,193.08340787887573 242.71182250976562,193.08340787887573 242.71182250976562,191.9886965751648 244.55197143554688,191.9886965751648 246.39230346679688,191.9886965751648 246.39230346679688,191.9886965751648 248.23239135742188,191.9886965751648 250.07260131835938,191.9886965751648 250.07260131835938,193.08340787887573 251.91275024414062,193.08340787887573 251.91275024414062,194.17811918258667 251.91275024414062,194.17811918258667 251.91275024414062,195.27278470993042 251.91275024414062,195.27278470993042 253.75296020507812,195.27278470993042 253.75296020507812,196.3674807548523 253.75296020507812,196.3674807548523 253.75296020507812,197.46217679977417 253.75296020507812,197.46217679977417 255.59304809570312,197.46217679977417 255.59304809570312,198.55685758590698 " class="" fill-opacity="1" stroke-opacity="1" filter="url(#f015)" opacity="1"/><polyline fill="#e9e98a" stroke="#e9e98a" style="color: rgb(0, 0, 0);" stroke-width="2" stroke-linejoin="round" stroke-dashoffset="" fill-rule="nonzero" marker-start="" marker-mid="" marker-end="" id="svg_2" points="511.6275806427002,38.85516929626465 510.7655200958252,38.85516929626465 506.4552173614502,37.99310111999512 500.42073249816895,37.99310111999512 496.1103687286377,37.99310111999512 494.3862476348877,37.99310111999512 490.93794441223145,38.85516929626465 488.35176277160645,38.85516929626465 487.4896411895752,38.85516929626465 484.9034595489502,39.717241287231445 483.1793384552002,40.57930946350098 481.4552173614502,40.57930946350098 480.59312629699707,41.44137763977051 478.86900520324707,42.30344581604004 477.14488410949707,44.0275821685791 475.42073249816895,47.47585868835449 473.6965808868408,49.199995040893555 472.8345203399658,51.78619956970215 471.1103992462158,55.234479904174805 467.66209602355957,62.99310111999512 466.80003547668457,63.85516929626465 465.93797492980957,66.44137382507324 465.07591438293457,69.02758598327637 465.07591438293457,70.75172233581543 465.07591438293457,72.47585868835449 464.21382331848145,74.19999504089355 465.07591438293457,75.92413139343262 465.93797492980957,78.51034355163574 470.2483081817627,82.8206844329834 472.8345203399658,85.40689659118652 474.5586414337158,87.13103294372559 477.14488410949707,90.57930564880371 478.00694465637207,92.3034496307373 478.86900520324707,94.8896541595459 479.73106575012207,98.33792686462402 479.73106575012207,100.06207084655762 479.73106575012207,103.51034355163574 478.86900520324707,106.09654808044434 477.14488410949707,109.54482841491699 476.28279304504395,112.13104057312012 476.28279304504395,112.99310111999512 476.28279304504395,115.57931327819824 475.42073249816895,117.3034496307373 475.42073249816895,118.1655101776123 475.42073249816895,120.75172233581543 475.42073249816895,124.19999504089355 478.00694465637207,129.3724193572998 482.3172779083252,132.82069206237793 486.6275806427002,136.26896476745605 490.93794441223145,138.85517692565918 495.2483081817627,139.71723747253418 497.8344898223877,140.57931327819824 500.42073249816895,140.57931327819824 503.00691413879395,140.57931327819824 508.1793384552002,140.57931327819824 511.6275806427002,138.85517692565918 514.2138233184814,137.13104057312012 517.6620655059814,133.68275260925293 523.6965503692627,128.51034355163574 526.282793045044,125.92413139343262 528.868974685669,123.33793449401855 530.593095779419,121.61379814147949 533.1793384552002,119.02758598327637 533.1793384552002,118.1655101776123 534.9034595489502,117.3034496307373 535.7655200958252,115.57931327819824 537.4897022247314,114.71723747253418 539.2138233184814,113.85517692565918 546.9724292755127,108.6827449798584 549.558671951294,106.95860862731934 552.144853591919,105.23447227478027 553.868974685669,104.37241172790527 555.593095779419,104.37241172790527 557.3172779083252,103.51034355163574 559.0413990020752,102.64827537536621 560.7655811309814,101.78620719909668 564.2138233184814,99.19999504089355 566.8000049591064,98.33792686462402 569.3862476348877,96.61379051208496 571.1103687286377,94.02758598327637 572.834550857544,93.16551780700684 572.834550857544,90.57930564880371 572.834550857544,88.85516929626465 572.834550857544,87.99310111999512 571.9724292755127,85.40689659118652 571.1103687286377,81.95861625671387 567.6620655059814,76.78620719909668 565.0758838653564,71.61379051208496 563.3517627716064,68.1655101776123 561.6276416778564,64.71723747253418 559.9035205841064,56.95861625671387 558.1793384552002,52.64826774597168 558.1793384552002,50.062063217163086 558.1793384552002,47.47585868835449 558.1793384552002,46.61379051208496 558.1793384552002,45.75172233581543 558.1793384552002,43.16551399230957 558.1793384552002,42.30344581604004 559.9035205841064,37.99310111999512 560.7655811309814,36.268964767456055 561.6276416778564,34.54482460021973 561.6276416778564,33.682756423950195 561.6276416778564,32.820688247680664 561.6276416778564,31.958620071411133 561.6276416778564,31.958620071411133 560.7655811309814,31.958620071411133 559.9035205841064,30.234479904174805 559.0413990020752,28.510343551635742 555.593095779419,27.64827537536621 551.282793045044,26.786203384399414 549.558671951294,26.786203384399414 546.1103687286377,25.924135208129883 544.3862476348877,25.924135208129883 542.6620655059814,25.924135208129883 540.9379444122314,25.924135208129883 540.9379444122314,25.924135208129883 540.0758838653564,25.924135208129883 539.2138233184814,25.924135208129883 538.3517627716064,25.924135208129883 537.4897022247314,25.924135208129883 537.4897022247314,25.924135208129883 536.6275806427002,25.924135208129883 534.9034595489502,26.786203384399414 534.0413990020752,26.786203384399414 534.0413990020752,26.786203384399414 533.1793384552002,27.64827537536621 533.1793384552002,27.64827537536621 532.3172779083252,29.372411727905273 531.4552173614502,30.234479904174805 531.4552173614502,31.0965518951416 531.4552173614502,32.820688247680664 530.593095779419,33.682756423950195 530.593095779419,34.54482460021973 530.593095779419,35.40689659118652 529.731035232544,36.268964767456055 528.868974685669,37.131032943725586 528.868974685669,37.99310111999512 528.006914138794,38.85516929626465 527.144853591919,39.717241287231445 527.144853591919,39.717241287231445 527.144853591919,40.57930946350098 526.282793045044,41.44137763977051 526.282793045044,41.44137763977051 525.420732498169,42.30344581604004 524.5586109161377,42.30344581604004 524.5586109161377,42.30344581604004 523.6965503692627,42.30344581604004 523.6965503692627,42.30344581604004 522.8344898223877,42.30344581604004 521.9724292755127,43.16551399230957 521.1103687286377,43.16551399230957 520.2483081817627,43.16551399230957 519.3862476348877,43.16551399230957 519.3862476348877,43.16551399230957 518.5241260528564,43.16551399230957 518.5241260528564,43.16551399230957 518.5241260528564,43.16551399230957 517.6620655059814,43.16551399230957 517.6620655059814,43.16551399230957 517.6620655059814,42.30344581604004 516.8000049591064,42.30344581604004 516.8000049591064,42.30344581604004 515.9379444122314,42.30344581604004 515.9379444122314,41.44137763977051 515.0758838653564,40.57930946350098 514.2138233184814,40.57930946350098 514.2138233184814,39.717241287231445 514.2138233184814,39.717241287231445 513.3517627716064,38.85516929626465 513.3517627716064,38.85516929626465 513.3517627716064,38.85516929626465 512.4897022247314,37.99310111999512 511.6275806427002,37.99310111999512 511.6275806427002,37.99310111999512 511.6275806427002,37.99310111999512 510.7655200958252,37.99310111999512 510.7655200958252,37.99310111999512 510.7655200958252,37.99310111999512 " class="" fill-opacity="1" opacity="1" filter="url(#f015)" stroke-opacity="1"/><polyline fill="#8ae9e9" stroke="#ffffff" style="color: rgb(0, 0, 0);" stroke-width="2" stroke-linejoin="round" stroke-dashoffset="" fill-rule="nonzero" marker-start="" marker-mid="" marker-end="" id="svg_6" points="446.11037361621857,264.71726310253143 445.24831306934357,264.71726310253143 445.24831306934357,264.71726310253143 443.52416145801544,266.44138419628143 443.52416145801544,266.44138419628143 443.52416145801544,267.30344474315643 443.52416145801544,268.16553580760956 443.52416145801544,268.16553580760956 442.66210091114044,269.02759635448456 442.66210091114044,269.88965690135956 442.66210091114044,269.88965690135956 442.66210091114044,270.75171744823456 441.8000098466873,271.6138085126877 441.8000098466873,271.6138085126877 441.8000098466873,272.4758690595627 441.8000098466873,273.3379296064377 441.8000098466873,273.3379296064377 441.8000098466873,274.2000206708908 441.8000098466873,275.0620812177658 441.8000098466873,275.0620812177658 441.8000098466873,275.9241417646408 441.8000098466873,276.7862023115158 441.8000098466873,276.7862023115158 441.8000098466873,277.64829337596893 441.8000098466873,278.51035392284393 442.66210091114044,279.37241446971893 443.52416145801544,280.23450553417206 443.52416145801544,281.09656608104706 444.38622200489044,281.09656608104706 445.24831306934357,281.09656608104706 446.11037361621857,281.95862662792206 448.6965857744217,281.95862662792206 452.1448584794998,281.95862662792206 454.73107063770294,281.95862662792206 455.59313118457794,281.95862662792206 456.45519173145294,281.95862662792206 458.17934334278107,282.82068717479706 459.90346443653107,282.82068717479706 460.76552498340607,282.82068717479706 462.4896765947342,282.82068717479706 463.3517676591873,282.82068717479706 464.2138282060623,282.82068717479706 465.0758887529373,282.82068717479706 465.9379492998123,282.82068717479706 466.8000098466873,282.82068717479706 468.52416145801544,282.82068717479706 470.24831306934357,282.82068717479706 471.97243416309357,283.6827782392502 472.83449470996857,284.5448387861252 473.6965857744217,285.4068993330002 476.2827979326248,287.9931114912033 477.1448584794998,288.8551720380783 478.0069190263748,289.71726310253143 478.0069190263748,290.57932364940643 478.0069190263748,292.30344474315643 478.8689795732498,294.88965690135956 478.8689795732498,295.7517479658127 478.8689795732498,296.6138085126877 478.8689795732498,299.2000206708908 478.0069190263748,301.7862023115158 478.0069190263748,302.64829337596893 477.1448584794998,304.37241446971893 476.2827979326248,305.23450553417206 475.4207068681717,306.95862662792206 475.4207068681717,308.6827782392502 475.4207068681717,309.5448387861252 475.4207068681717,309.5448387861252 475.4207068681717,310.4068993330002 475.4207068681717,310.4068993330002 475.4207068681717,312.1310509443283 475.4207068681717,312.1310509443283 475.4207068681717,312.9931114912033 475.4207068681717,313.8551720380783 475.4207068681717,313.8551720380783 475.4207068681717,313.8551720380783 474.5586463212967,314.71726310253143 474.5586463212967,314.71726310253143 474.5586463212967,314.71726310253143 474.5586463212967,315.57932364940643 475.4207068681717,315.57932364940643 475.4207068681717,315.57932364940643 476.2827979326248,316.44138419628143 477.1448584794998,316.44138419628143 478.0069190263748,315.57932364940643 480.59313118457794,313.8551720380783 481.45519173145294,312.1310509443283 482.31728279590607,311.2689903974533 484.04140388965607,309.5448387861252 486.6276160478592,306.95862662792206 488.3517676591873,304.37241446971893 489.2138282060623,303.51035392284393 490.0758887529373,300.9241417646408 492.66210091114044,296.6138085126877 492.66210091114044,295.7517479658127 494.38625252246857,290.57932364940643 494.38625252246857,289.71726310253143 495.24831306934357,287.9931114912033 496.11037361621857,286.2689598798752 496.11037361621857,284.5448387861252 496.11037361621857,283.6827782392502 496.11037361621857,281.95862662792206 496.11037361621857,281.09656608104706 496.11037361621857,280.23450553417206 496.11037361621857,280.23450553417206 496.11037361621857,279.37241446971893 496.11037361621857,278.51035392284393 496.11037361621857,278.51035392284393 496.11037361621857,278.51035392284393 496.11037361621857,278.51035392284393 496.11037361621857,277.64829337596893 496.11037361621857,276.7862023115158 496.11037361621857,275.9241417646408 496.11037361621857,274.2000206708908 496.11037361621857,274.2000206708908 496.11037361621857,273.3379296064377 496.97243416309357,271.6138085126877 497.83449470996857,271.6138085126877 497.83449470996857,270.75171744823456 497.83449470996857,270.75171744823456 498.6965857744217,270.75171744823456 498.6965857744217,269.88965690135956 498.6965857744217,269.02759635448456 498.6965857744217,268.16553580760956 499.5586463212967,264.71726310253143 499.5586463212967,257.82068717479706 499.5586463212967,253.510369181633 499.5586463212967,248.33794486522675 499.5586463212967,245.75173270702362 499.5586463212967,244.02761161327362 499.5586463212967,243.16555106639862 500.4207373857498,242.3034600019455 500.4207373857498,241.4413994550705 502.1448584794998,239.7172783613205 502.1448584794998,239.7172783613205 502.1448584794998,239.7172783613205 501.2827979326248,238.85518729686737 500.4207373857498,237.13106620311737 497.83449470996857,234.54485404491425 496.97243416309357,234.54485404491425 495.24831306934357,234.54485404491425 491.8000098466873,234.54485404491425 490.9379492998123,235.40691459178925 488.3517676591873,236.26897513866425 483.17934334278107,237.99312674999237 482.31728279590607,238.85518729686737 478.8689795732498,240.5793389081955 477.1448584794998,243.16555106639862 474.5586463212967,245.75173270702362 474.5586463212967,245.75173270702362 472.83449470996857,247.47588431835175 470.24831306934357,250.06209647655487 468.52416145801544,250.92415702342987 466.8000098466873,253.510369181633 465.0758887529373,253.510369181633 462.4896765947342,254.372429728508 461.6276160478592,254.372429728508 459.04140388965607,254.372429728508 455.59313118457794,252.648308634758 454.73107063770294,252.648308634758 453.8689795732498,251.78621757030487 452.1448584794998,251.78621757030487 451.2827979326248,251.78621757030487 450.4207068681717,251.78621757030487 449.5586463212967,250.92415702342987 447.83449470996857,250.92415702342987 446.11037361621857,250.92415702342987 445.24831306934357,250.92415702342987 444.38622200489044,250.92415702342987 443.52416145801544,250.92415702342987 443.52416145801544,250.92415702342987 443.52416145801544,250.92415702342987 443.52416145801544,251.78621757030487 442.66210091114044,252.648308634758 442.66210091114044,253.510369181633 442.66210091114044,253.510369181633 442.66210091114044,255.23452079296112 442.66210091114044,255.23452079296112 442.66210091114044,256.0965813398361 441.8000098466873,256.95862662792206 441.8000098466873,256.95862662792206 441.8000098466873,257.82068717479706 441.8000098466873,257.82068717479706 442.66210091114044,258.6827782392502 442.66210091114044,258.6827782392502 442.66210091114044,259.5448387861252 443.52416145801544,259.5448387861252 444.38622200489044,260.4068993330002 444.38622200489044,261.2689598798752 446.11037361621857,261.2689598798752 446.11037361621857,262.1310509443283 446.97243416309357,262.1310509443283 447.83449470996857,262.1310509443283 447.83449470996857,262.1310509443283 " class="" fill-opacity="1" stroke-opacity="1"/><polyline fill="#8ae9e9" stroke="#ffffff" style="color: rgb(0, 0, 0);" stroke-width="2" stroke-linejoin="round" stroke-dashoffset="" fill-rule="nonzero" marker-start="" marker-mid="" marker-end="" id="svg_7" points="203.86898803710938,284.5448341369629 203.86898803710938,283.6827583312988 203.00692749023438,283.6827583312988 203.00692749023438,283.6827583312988 203.00692749023438,283.6827583312988 203.00692749023438,283.6827583312988 202.1448516845703,283.6827583312988 202.1448516845703,283.6827583312988 201.2827911376953,284.5448341369629 201.2827911376953,285.4068946838379 200.42071533203125,287.993106842041 200.42071533203125,289.7172431945801 199.55865478515625,291.44137954711914 199.55865478515625,292.3034553527832 199.55865478515625,294.02759170532227 199.55865478515625,294.8896675109863 199.55865478515625,295.7517280578613 199.55865478515625,296.6138038635254 199.55865478515625,297.4758644104004 199.55865478515625,297.4758644104004 199.55865478515625,297.4758644104004 201.2827911376953,297.4758644104004 202.1448516845703,298.33794021606445 203.00692749023438,298.33794021606445 203.86898803710938,298.33794021606445 204.73106384277344,298.33794021606445 205.59312438964844,298.33794021606445 206.4552001953125,298.33794021606445 207.31727600097656,298.33794021606445 209.04141235351562,298.33794021606445 209.04141235351562,298.33794021606445 210.7655487060547,297.4758644104004 210.7655487060547,297.4758644104004 211.6276092529297,297.4758644104004 212.48968505859375,296.6138038635254 213.35174560546875,296.6138038635254 215.07589721679688,294.8896675109863 216.80003356933594,294.02759170532227 217.66209411621094,293.1655158996582 218.524169921875,292.3034553527832 219.38623046875,290.57931900024414 221.11036682128906,289.7172431945801 221.11036682128906,289.7172431945801 221.11036682128906,287.993106842041 221.11036682128906,287.993106842041 221.11036682128906,287.131046295166 221.97244262695312,286.26897048950195 221.11036682128906,285.4068946838379 221.11036682128906,284.5448341369629 220.24830627441406,283.6827583312988 220.24830627441406,282.8206977844238 219.38623046875,282.8206977844238 217.66209411621094,281.95862197875977 215.07589721679688,281.95862197875977 212.48968505859375,281.09656143188477 210.7655487060547,280.2344856262207 209.04141235351562,280.2344856262207 208.17933654785156,280.2344856262207 206.4552001953125,279.3724250793457 205.59312438964844,279.3724250793457 204.73106384277344,279.3724250793457 204.73106384277344,279.3724250793457 203.00692749023438,279.3724250793457 203.00692749023438,280.2344856262207 202.1448516845703,281.09656143188477 202.1448516845703,281.09656143188477 202.1448516845703,281.09656143188477 202.1448516845703,281.95862197875977 202.1448516845703,281.95862197875977 202.1448516845703,281.95862197875977 202.1448516845703,283.6827583312988 202.1448516845703,283.6827583312988 " class="" fill-opacity="1" stroke-opacity="1" opacity="1"/><polyline fill="#abecab" stroke="#abecab" style="color: rgb(0, 0, 0);" stroke-width="2" stroke-linejoin="round" stroke-dashoffset="" fill-rule="nonzero" marker-start="" marker-mid="" marker-end="" id="svg_8" points="754.2016277313232,358.1050262451172 754.2016277313232,359.0609588623047 752.3540935516357,362.8846893310547 749.5827922821045,365.75254821777344 747.7351360321045,366.7084197998047 743.1163005828857,369.5762176513672 740.3450603485107,370.53221130371094 734.8022747039795,370.53221130371094 725.5645427703857,370.53221130371094 716.326810836792,368.6202850341797 710.7842082977295,368.6202850341797 701.5463542938232,366.7084197998047 690.4611492156982,364.79661560058594 683.9947185516357,362.8846893310547 670.138090133667,360.01683044433594 667.3666667938232,359.0609588623047 656.2814617156982,357.1490936279297 651.6625652313232,356.19309997558594 639.653470993042,355.23716735839844 629.4919109344482,354.2811737060547 626.7205486297607,354.2811737060547 622.1016521453857,355.23716735839844 617.4828777313232,357.1490936279297 615.6352825164795,358.1050262451172 609.1687908172607,360.97276306152344 605.473783493042,364.79661560058594 601.7785320281982,367.66441345214844 597.159818649292,371.4882049560547 596.235990524292,372.4441375732422 594.3883953094482,374.3560028076172 593.4646282196045,376.26780700683594 591.6171550750732,380.09165954589844 589.7694988250732,384.87132263183594 586.9982585906982,391.56297302246094 584.2268962860107,401.1223602294922 581.4555339813232,405.9021453857422 578.6842937469482,411.63768005371094 577.7605266571045,414.50547790527344 574.9891033172607,419.2853240966797 572.2178630828857,422.1531219482422 568.5227336883545,425.9768524169922 565.7514324188232,428.8446502685547 563.9038982391357,430.7565155029297 559.2850017547607,437.44810485839844 554.6660442352295,442.22789001464844 548.1997356414795,449.87535095214844 543.5808391571045,455.61106872558594 537.1143474578857,465.17039489746094 533.4192180633545,470.9060516357422 529.7240886688232,476.64170837402344 526.0290813446045,480.4654998779297 523.2576580047607,485.24510192871094 523.2576580047607,485.24510192871094 521.4101848602295,488.1130828857422 520.4864177703857,490.02488708496094 519.562650680542,492.89268493652344 518.6388835906982,496.7164764404297 517.7150554656982,501.4962615966797 519.562650680542,513.9233245849609 523.2576580047607,523.4828338623047 526.9528484344482,533.0422210693359 528.8003826141357,536.8660125732422 532.495512008667,542.6016693115234 538.0381145477295,548.3372650146484 542.6570110321045,553.1169891357422 544.5046062469482,555.0288543701172 546.3520793914795,555.9847259521484 547.2759685516357,557.8967742919922 549.123441696167,559.8085784912109 550.9709758758545,559.8085784912109 551.8948650360107,560.7645111083984 553.742338180542,560.7645111083984 553.742338180542,560.7645111083984 554.6660442352295,560.7645111083984 554.6660442352295,560.7645111083984 555.5898723602295,560.7645111083984 556.5136394500732,560.7645111083984 556.5136394500732,560.7645111083984 557.437406539917,560.7645111083984 557.437406539917,560.7645111083984 557.437406539917,560.7645111083984 558.361234664917,560.7645111083984 558.361234664917,561.7203826904297 558.361234664917,561.7203826904297 559.2850017547607,561.7203826904297 559.2850017547607,561.7203826904297 559.2850017547607,562.6763153076172 559.2850017547607,562.6763153076172 559.2850017547607,562.6763153076172 560.2087688446045,562.6763153076172 560.2087688446045,563.6323699951172 560.2087688446045,563.6323699951172 560.2087688446045,563.6323699951172 561.132474899292,564.5883636474609 " class="" fill-opacity="1" transform="rotate(-28.7091, 635.958, 459.435)" stroke-opacity="1" opacity="1" filter="url(#f205)"/><polyline fill="#e7e767" stroke="#e7e767" style="color: rgb(0, 0, 0);" stroke-width="2" stroke-linejoin="round" stroke-dashoffset="" fill-rule="nonzero" marker-start="" marker-mid="" marker-end="" id="svg_10" points="137.48963928222656,398.3379783630371 134.04136657714844,397.4759178161621 132.3172149658203,397.4759178161621 127.14479064941406,397.4759178161621 120.24824523925781,397.4759178161621 103.86894226074219,397.4759178161621 93.52413177490234,396.613826751709 90.0758285522461,396.613826751709 84.04134368896484,397.4759178161621 79.73101043701172,397.4759178161621 76.2827377319336,398.3379783630371 71.97240447998047,400.92419052124023 64.2137680053711,406.9586753845215 58.179283142089844,412.99316024780273 53.86894989013672,419.027645111084 52.144798278808594,420.751766204834 51.282737731933594,421.613826751709 51.282737731933594,425.0620994567871 53.006858825683594,431.09658432006836 57.317222595214844,438.85522079467773 59.90343475341797,442.30349349975586 62.489646911621094,446.613826751709 64.2137680053711,449.2000389099121 65.0758285522461,450.92419052124023 66.79998016357422,455.23452377319336 66.79998016357422,457.8207359313965 67.66204071044922,460.4069480895996 67.66204071044922,463.85522079467773 66.79998016357422,469.027645111084 66.79998016357422,469.889705657959 62.489646911621094,479.37246322631836 58.179283142089844,487.1310691833496 56.455162048339844,489.71728134155273 54.73101043701172,494.027645111084 53.006858825683594,497.4759178161621 53.006858825683594,499.2000389099121 53.006858825683594,501.78625106811523 52.144798278808594,503.51040267944336 53.006858825683594,506.0966148376465 53.86894989013672,508.6827964782715 56.455162048339844,511.2690086364746 65.93791961669922,517.3034934997559 74.55858612060547,520.751766204834 78.86894989013672,521.6138572692871 85.76549530029297,523.3379783630371 90.93791961669922,523.3379783630371 95.24825286865234,524.2000389099121 101.2827377319336,524.2000389099121 104.73100280761719,523.3379783630371 107.31721496582031,523.3379783630371 110.76548767089844,522.4759178161621 116.79997253417969,519.889705657959 129.7310028076172,514.7172813415527 139.21376037597656,510.4069480895996 149.55860900878906,506.0966148376465 153.8689422607422,504.37246322631836 162.48963928222656,500.92419052124023 169.3861846923828,498.3379783630371 177.14479064941406,494.889705657959 192.6620330810547,490.57937240600586 203.8689422607422,488.85522079467773 214.21376037597656,488.85522079467773 225.42066955566406,489.71728134155273 233.1792755126953,492.30349349975586 235.76548767089844,493.16555404663086 240.93792724609375,494.889705657959 246.1103515625,495.751766204834 249.55862426757812,494.889705657959 252.14483642578125,494.027645111084 256.4551696777344,490.57937240600586 259.0413818359375,487.1310691833496 262.4896545410156,478.51040267944336 264.2137756347656,472.4759178161621 267.6620788574219,462.99316024780273 269.3861999511719,455.23452377319336 269.3861999511719,451.78625106811523 269.3861999511719,444.027645111084 268.5241394042969,439.71728134155273 267.6620788574219,435.4069480895996 265.93792724609375,430.23452377319336 263.3517150878906,425.0620994567871 260.7655029296875,420.751766204834 254.73101806640625,412.99316024780273 249.55862426757812,405.23452377319336 244.38619995117188,398.3379783630371 238.35169982910156,392.30349349975586 236.62757873535156,390.57934188842773 232.3172149658203,387.1310691833496 228.8689422607422,385.4069480895996 225.42066955566406,383.6827964782715 223.69651794433594,382.8207359313965 221.11033630371094,381.9586753845215 218.5241241455078,381.9586753845215 213.35169982910156,381.9586753845215 210.76548767089844,382.8207359313965 206.4551544189453,383.6827964782715 203.8689422607422,383.6827964782715 195.2482452392578,383.6827964782715 190.9379119873047,383.6827964782715 185.76548767089844,383.6827964782715 177.14479064941406,383.6827964782715 175.42066955566406,383.6827964782715 170.2482452392578,384.5448570251465 165.9379119873047,384.5448570251465 165.0758514404297,384.5448570251465 161.62754821777344,385.4069480895996 158.1792755126953,387.1310691833496 154.7310028076172,387.99316024780273 152.14479064941406,388.85522079467773 149.55860900878906,390.57934188842773 147.83445739746094,390.57934188842773 146.97239685058594,392.30349349975586 146.1103057861328,392.30349349975586 145.2482452392578,393.16555404663086 143.5241241455078,394.02761459350586 141.7999725341797,395.751766204834 140.9379119873047,396.613826751709 139.21376037597656,398.3379783630371 139.21376037597656,399.2000389099121 139.21376037597656,400.0620994567871 138.35169982910156,400.0620994567871 138.35169982910156,400.92419052124023 138.35169982910156,400.92419052124023 138.35169982910156,400.92419052124023 138.35169982910156,400.92419052124023 " class="" fill-opacity="1" opacity="0.81" filter="url(#f015)" stroke-opacity="1"/><polyline fill="#8ae9e9" stroke="#ffffff" style="color: rgb(0, 0, 0);" stroke-width="2" stroke-linejoin="round" stroke-dashoffset="" fill-rule="nonzero" marker-start="" marker-mid="" marker-end="" id="svg_11" points="435.7655487060547,550.0620946884155 434.9034881591797,550.0620946884155 434.0414276123047,550.9241552352905 431.45518493652344,551.7862157821655 431.45518493652344,552.6482763290405 429.73106384277344,554.3723974227905 427.14488220214844,556.0965795516968 424.5586395263672,556.9586400985718 421.9724578857422,558.6827611923218 419.38621520996094,560.4068822860718 413.3517303466797,563.855185508728 411.6276092529297,563.855185508728 407.31724548339844,565.579306602478 402.14488220214844,567.303427696228 398.6965789794922,569.0276098251343 392.66209411621094,570.7517309188843 380.59312438964844,575.0620946884155 377.14488220214844,575.0620946884155 371.1103973388672,576.7862157821655 362.4896697998047,576.7862157821655 356.45518493652344,577.6482763290405 347.8345184326172,578.5103368759155 343.52415466308594,579.3723974227905 339.21385192871094,581.0965795516968 336.6276092529297,581.9586400985718 331.45518493652344,584.5448217391968 323.6965789794922,587.993124961853 319.38621520996094,590.579306602478 314.2137908935547,593.1655492782593 312.4896697998047,594.8896703720093 310.7655487060547,596.6137914657593 309.9034881591797,596.6137914657593 309.0414276123047,598.3379125595093 308.17930603027344,599.2000341415405 306.45518493652344,601.7862157821655 306.45518493652344,603.5103368759155 305.59312438964844,606.9586400985718 305.59312438964844,608.6827611923218 304.73106384277344,611.269003868103 303.86900329589844,613.855185508728 303.00694274902344,614.717246055603 303.00694274902344,618.1655492782593 301.2827606201172,621.6137914657593 301.2827606201172,623.3379125595093 301.2827606201172,625.0620946884155 301.2827606201172,625.0620946884155 301.2827606201172,625.9241552352905 301.2827606201172,626.7862157821655 301.2827606201172,628.5103368759155 302.1448211669922,630.2345190048218 303.86900329589844,631.9586400985718 306.45518493652344,633.6827611923218 307.31724548339844,634.5448217391968 309.0414276123047,636.269003868103 309.0414276123047,637.993124961853 309.9034881591797,642.3034887313843 310.7655487060547,643.1655492782593 310.7655487060547,644.8896703720093 310.7655487060547,647.4758520126343 310.7655487060547,648.3379125595093 310.7655487060547,649.2000341415405 310.7655487060547,650.9241552352905 310.7655487060547,651.7862157821655 310.7655487060547,651.7862157821655 310.7655487060547,652.6482763290405 310.7655487060547,652.6482763290405 310.7655487060547,653.5103368759155 310.7655487060547,655.2345190048218 311.6276092529297,656.9586400985718 314.2137908935547,658.6827611923218 315.93797302246094,661.269003868103 316.80003356933594,661.269003868103 321.1103973388672,662.131064414978 321.9724578857422,662.131064414978 323.6965789794922,662.131064414978 325.4207000732422,662.131064414978 328.86900329589844,661.269003868103 330.59312438964844,661.269003868103 334.9034881591797,659.5448217391968 339.21385192871094,656.9586400985718 341.80003356933594,655.2345190048218 346.9724578857422,653.5103368759155 352.14488220214844,650.0620946884155 353.86900329589844,650.0620946884155 355.59312438964844,648.3379125595093 357.31724548339844,647.4758520126343 358.1793670654297,646.6137914657593 359.0414276123047,645.7517309188843 361.6276092529297,644.0276098251343 366.80003356933594,639.717246055603 371.1103973388672,635.4068822860718 378.00694274902344,630.2345190048218 381.45518493652344,628.5103368759155 384.0414276123047,626.7862157821655 384.9034881591797,625.0620946884155 388.3517303466797,624.2000341415405 391.80003356933594,624.2000341415405 395.2483367919922,622.4758520126343 397.8345184326172,621.6137914657593 403.86900329589844,620.7517309188843 414.21385192871094,618.1655492782593 419.38621520996094,617.3034887313843 425.4207000732422,616.441367149353 426.28282165527344,615.579306602478 428.86900329589844,614.717246055603 432.31724548339844,612.993124961853 434.9034881591797,611.269003868103 437.4896697998047,610.4068822860718 440.07591247558594,608.6827611923218 440.93797302246094,607.8207006454468 443.52415466308594,606.0965795516968 443.52415466308594,604.3723974227905 443.52415466308594,604.3723974227905 446.1103973388672,598.3379125595093 446.9724578857422,594.8896703720093 446.9724578857422,593.1655492782593 446.9724578857422,590.579306602478 447.8345184326172,586.269003868103 449.5586395263672,581.9586400985718 450.4207000732422,579.3723974227905 451.28282165527344,577.6482763290405 453.00694274902344,573.3379125595093 455.59312438964844,566.441367149353 456.45518493652344,562.993124961853 457.3173065185547,560.4068822860718 458.1793670654297,559.5448217391968 459.0414276123047,557.8207006454468 459.0414276123047,556.0965795516968 459.0414276123047,555.2345190048218 459.0414276123047,553.5103368759155 458.1793670654297,551.7862157821655 457.3173065185547,550.0620946884155 454.73106384277344,548.3379125595093 453.00694274902344,547.4758520126343 451.28282165527344,546.6137914657593 448.6965789794922,546.6137914657593 447.8345184326172,546.6137914657593 446.9724578857422,546.6137914657593 444.38621520996094,546.6137914657593 441.80003356933594,545.7517309188843 440.07591247558594,546.6137914657593 438.3517303466797,547.4758520126343 436.6276092529297,548.3379125595093 434.0414276123047,549.2000341415405 434.0414276123047,549.2000341415405 433.1793670654297,550.0620946884155 432.31724548339844,550.0620946884155 431.45518493652344,550.9241552352905 431.45518493652344,550.9241552352905 430.59312438964844,550.9241552352905 " class="" fill-opacity="1" stroke-opacity="1" opacity="1" filter="url(#f015)"/></g><defs><filter id="f015" inkscape:label="Ripple" inkscape:menu="Distort" inkscape:menu-tooltip="Horizontal rippling of edges" color-interpolation-filters="sRGB">
            <feTurbulence numOctaves="1" baseFrequency="0.002 0.107"/>
            <feColorMatrix values="2 0 0 0 0 0 0 0 0 0 0 0 0 0 0 0 0 0 0.5 0.5" result="result91"/>
            <feDisplacementMap yChannelSelector="A" xChannelSelector="R" scale="14.3" in="SourceGraphic" in2="result91"/>
        </filter><filter id="f205" inkscape:label="Clean edges" inkscape:menu="ABCs" inkscape:menu-tooltip="Removes or decreases glows and jaggeries around objects edges after applying some filters" height="1" width="1" y="0" x="0" color-interpolation-filters="sRGB">
            <feGaussianBlur result="result6" stdDeviation=".4"/>
            <feComposite in2="result6" operator="in" in="SourceGraphic" result="result7"/>
            <feComposite operator="in" in2="result7" result="result8" in="result7"/>
        </filter></defs></svg>